Coordinates
version=1
nRows=10
nColumns=40
inDegrees=yes

Units are S.I. units (second, meters, Newtons, ...)
If the header above contains a line with 'inDegrees', this indicates whether rotational values are in degrees (yes) or radians (no).

endheader
time	pelvis_tilt	pelvis_list	pelvis_rotation	pelvis_tx	pelvis_ty	pelvis_tz	hip_flexion_r	hip_adduction_r	hip_rotation_r	knee_angle_r	knee_angle_r_beta	ankle_angle_r	subtalar_angle_r	mtp_angle_r	hip_flexion_l	hip_adduction_l	hip_rotation_l	knee_angle_l	knee_angle_l_beta	ankle_angle_l	subtalar_angle_l	mtp_angle_l	lumbar_extension	lumbar_bending	lumbar_rotation	arm_flex_r	arm_add_r	arm_rot_r	elbow_flex_r	pro_sup_r	wrist_flex_r	wrist_dev_r	arm_flex_l	arm_add_l	arm_rot_l	elbow_flex_l	pro_sup_l	wrist_flex_l	wrist_dev_l
      3.91700000	     22.49843258	      7.47684754	     12.38053731	      0.02410736	      1.33205311	     -0.00799314	      4.12036725	    -10.67813500	    -18.12847124	     33.62196917	      0.58681406	    -21.84887676	    -22.36374176	      0.00000000	     46.46915864	      9.55690221	      7.87513561	    102.68511064	      1.79219327	    -26.30412551	    -29.04083802	      0.00000000	    -76.64284518	      4.73926546	      3.88865648	     31.07730652	    -15.73676353	    -34.19381856	     53.69419939	     35.86580095	      0.00000000	      0.00000000	     54.10284016	     17.88383015	    -16.03443140	     42.08661275	     43.86085893	      0.00000000	      0.00000000
      3.93300000	     22.55790557	      7.28388969	     12.07773582	      0.02411682	      1.33281545	     -0.00752221	      4.74517615	    -10.64931868	    -18.18485113	     37.79149314	      0.65958598	    -20.64599625	    -22.49129669	      0.00000000	     46.60494532	      9.27779471	      7.52449015	     99.55969808	      1.73764453	    -25.86265386	    -29.35135339	      0.00000000	    -76.99458164	      4.51454374	      4.18677216	     31.07357238	    -15.82034423	    -34.15253616	     54.04884155	     35.29263335	      0.00000000	      0.00000000	     54.00469612	     17.92470834	    -15.55072479	     42.50297546	     43.29182591	      0.00000000	      0.00000000
      3.95000000	     22.76030677	      6.90209113	     11.92660478	      0.02419261	      1.33391789	     -0.00727371	      5.74573991	    -10.58143387	    -18.34089313	     42.59340003	      0.74339507	    -19.39462186	    -22.83965744	      0.00000000	     45.81515269	      8.76071056	      7.41876176	     95.63562243	      1.66915649	    -25.51906937	    -29.81830273	      0.00000000	    -77.43607477	      4.51466176	      4.66131339	     31.18715812	    -15.93864978	    -34.03783622	     54.28375583	     34.74163431	      0.00000000	      0.00000000	     54.05163977	     18.00974167	    -15.31541872	     42.73267298	     42.66843242	      0.00000000	      0.00000000
      3.96700000	     23.00717979	      6.38400911	     12.01307487	      0.02439102	      1.33518875	     -0.00746994	      7.26767639	    -10.63319799	    -18.69924708	     48.11035990	      0.83968418	    -18.11513679	    -23.22319178	      0.00000000	     44.12669017	      8.03929290	      7.45861641	     90.78193988	      1.58444375	    -25.25076769	    -30.31405674	      0.00000000	    -77.84130279	      4.76114635	      5.25522765	     31.44898286	    -16.09267454	    -33.98553303	     54.30576257	     34.44302693	      0.00000000	      0.00000000	     54.32114030	     18.22249044	    -15.45513637	     42.69191359	     42.34299300	      0.00000000	      0.00000000
      3.98300000	     23.25921760	      5.77246076	     12.18259132	      0.02476822	      1.33641185	     -0.00785096	      9.34226447	    -10.77517312	    -18.99238550	     54.28154777	      0.94739173	    -16.84653442	    -23.63010278	      0.00000000	     41.68421744	      7.07911377	      7.53355233	     85.00166088	      1.48355885	    -25.21351957	    -30.76088456	      0.00000000	    -78.19729813	      5.10119735	      5.93994601	     31.78943355	    -16.24824568	    -33.95062076	     54.22803217	     34.21376826	      0.00000000	      0.00000000	     54.70231302	     18.47520964	    -15.79930136	     42.51132746	     42.22336220	      0.00000000	      0.00000000
      4.00000000	     23.47097876	      5.24669433	     12.20310629	      0.02521596	      1.33750495	     -0.00807447	     11.76246292	    -11.06848337	    -18.97955426	     60.46268711	      1.05527296	    -15.88828945	    -24.08332429	      0.00000000	     38.75251100	      6.04082319	      7.47648255	     78.90534688	      1.37715810	    -25.19160168	    -31.10462704	      0.00000000	    -78.48986899	      5.32038536	      6.54840012	     32.14409346	    -16.37684857	    -33.88336503	     54.15155867	     34.08400552	      0.00000000	      0.00000000	     55.04786113	     18.68813651	    -16.26434949	     42.33065479	     42.27329848	      0.00000000	      0.00000000
      4.01700000	     23.75116797	      4.60304994	     12.17354909	      0.02576118	      1.33851922	     -0.00814978	     14.34795538	    -11.28597002	    -18.93594774	     66.56954175	      1.16185769	    -15.12104950	    -24.91792582	      0.00000000	     35.26475653	      4.79334421	      7.51728383	     72.50660882	      1.26547905	    -24.96354717	    -31.08661350	      0.00000000	    -78.78232476	      5.61026491	      7.30609854	     32.47929335	    -16.63061364	    -33.69954858	     54.04615654	     34.08866169	      0.00000000	      0.00000000	     55.23600785	     18.85820220	    -16.69639376	     42.24187776	     42.29043994	      0.00000000	      0.00000000
      4.03300000	     23.85577674	      4.24213401	     11.75475255	      0.02645509	      1.33918600	     -0.00774328	     17.57800788	    -11.77339296	    -18.17047710	     72.77366540	      1.27014007	    -14.68678585	    -25.48808233	      0.00000000	     31.34331067	      3.55401580	      6.94874925	     65.52974937	      1.14370988	    -25.04852732	    -31.21565969	      0.00000000	    -78.90030727	      5.47365090	      7.80844087	     32.79300394	    -16.77876789	    -33.50695855	     53.97965847	     34.09850535	      0.00000000	      0.00000000	     55.44698339	     19.01846721	    -17.29907235	     42.05277416	     42.38883619	      0.00000000	      0.00000000
      4.05000000	     23.86375634	      3.93514040	     11.04937431	      0.02725331	      1.33948365	     -0.00723867	     21.12470371	    -12.16489076	    -16.92033995	     78.44201628	      1.36907146	    -14.42603475	    -25.26575369	      0.00000000	     27.34189955	      2.24860648	      5.78702055	     58.77495352	      1.02581646	    -25.63987765	    -31.72846031	      0.00000000	    -78.91076117	      5.07979475	      8.26860618	     33.11874345	    -16.77209514	    -33.44746856	     53.95241939	     34.11466479	      0.00000000	      0.00000000	     55.60589742	     19.08640833	    -17.92440532	     41.91312815	     42.87745021	      0.00000000	      0.00000000
      4.06700000	     23.80546904	      3.43886948	     10.52922573	      0.02803307	      1.33947788	     -0.00704037	     24.73961289	    -12.41767570	    -16.10355923	     83.36727788	      1.45503349	    -13.97020604	    -24.77070196	      0.00000000	     23.29666122	      0.90902345	      4.80492633	     52.39766999	      0.91451186	    -26.54321632	    -31.36184778	      0.00000000	    -78.86562928	      4.91979335	      8.91655196	     33.38048792	    -16.71767703	    -33.45184882	     54.05307104	     34.17312110	      0.00000000	      0.00000000	     55.78141221	     19.09416919	    -18.49565808	     41.78417460	     43.43486828	      0.00000000	      0.00000000
